<svg width="772" height="966" viewBox="0 0 772 966" fill="none" xmlns="http://www.w3.org/2000/svg">
<g style="mix-blend-mode:plus-lighter" filter="url(#filter0_d_130_123)">
<path d="M214.326 393.732C214.326 393.732 214.215 394.06 214.197 394.194M214.326 393.732L216.343 393.049C215.572 393.355 214.856 393.736 214.197 394.194M214.326 393.732C220.821 369.487 230.141 349.325 242.222 333.239C254.126 317.47 268.744 305.633 286.057 297.862M214.197 394.194C212.441 400.734 210.91 407.577 209.667 414.735M288.744 296.656L300.11 292.592M288.744 296.656C292.48 295.043 296.308 293.716 300.11 292.592M288.744 296.656C287.833 297.011 286.977 297.44 286.057 297.862M300.11 292.592L300.455 292.5M259.19 276.458L204.612 295.78L189.619 301.128M259.19 276.458L286.057 297.862M259.19 276.458L329.04 251.688C334.597 249.365 337.955 243.729 339.185 234.721C340.416 225.713 339.114 216.29 335.218 206.444C331.313 196.666 325.868 188.938 318.929 183.403L269.697 144.151C262.758 138.615 256.478 137.005 250.994 139.269L113.246 188.115M189.619 301.128C195.177 298.806 198.535 293.17 199.765 284.161C199.847 283.556 199.921 283.018 199.938 282.404C200.505 276.798 200.094 271.058 198.707 265.185C197.995 262.143 197.031 258.997 195.798 255.884C195.256 254.509 194.64 253.193 194.024 251.876C190.327 243.976 185.488 237.631 179.509 232.843L130.276 193.591C124.054 188.633 118.332 186.824 113.246 188.115M189.619 301.128C184.061 303.451 177.784 301.84 170.854 296.237L139.383 271.19M113.246 188.115L111.577 188.709C106.019 191.032 102.596 196.659 101.366 205.667C100.136 214.675 101.502 224.107 105.398 233.953C109.229 243.789 114.683 251.45 121.613 257.053L139.383 271.19M154.974 554.842C160.532 552.519 163.889 546.882 165.12 537.874C166.35 528.866 165.04 519.51 161.144 509.665C157.248 499.82 151.803 492.091 144.864 486.555L95.6314 447.304C89.4098 442.346 83.6869 440.537 78.5926 441.896M154.974 554.842C149.417 557.164 143.136 555.553 136.197 550.017L86.9649 510.766C80.0258 505.23 74.581 497.501 70.7502 487.665C66.8543 477.82 65.4877 468.388 66.7087 459.447C67.9297 450.506 71.3619 444.812 76.9195 442.49L78.5926 441.896M154.974 554.842L207.4 536.251M78.5926 441.896L146.772 417.719M139.383 271.19L71.2746 295.375M209.667 414.735L205.698 416.11L172.302 427.985M209.667 414.735C208.708 419.329 207.925 424.084 207.255 428.991L207.035 430.605C202.362 464.823 202.527 500.044 207.4 536.251M172.302 427.985C177.859 425.662 181.217 420.026 182.447 411.017C182.722 409 182.867 406.966 182.882 404.914C182.991 397.806 181.47 390.477 178.471 382.808C174.575 372.963 169.13 365.234 162.191 359.699L88.3692 300.86C82.1567 295.834 76.434 294.025 71.2746 295.375M172.302 427.985C166.744 430.308 160.463 428.696 153.534 423.093L146.772 417.719M71.2746 295.375L69.6015 295.969C64.1091 298.301 60.6876 303.928 59.4574 312.936C58.2272 321.945 59.5922 331.376 63.423 341.212C67.3281 350.99 72.773 358.718 79.7119 364.254L146.772 417.719M300.455 292.5C323.554 285.588 347.887 286.652 373.555 295.91C394.373 303.273 416.001 315.882 438.429 333.805C473.486 361.739 503.794 397.241 529.299 440.237C543.543 464.165 556.276 490.419 567.562 519.009C568.935 522.553 570.309 526.096 571.618 529.631C581.654 556.202 589.235 582.301 594.572 607.819C600.595 636.582 603.713 664.742 603.883 692.157C603.989 709.839 602.867 727.285 600.526 744.428C595.78 779.184 586.781 807.675 573.548 829.768C559.778 852.883 541.438 869.141 518.454 878.603M300.455 292.5L428.166 247.214C473.016 228.207 522.937 240.571 577.851 284.364C632.412 327.836 675.452 389.593 706.983 469.569C738.58 549.555 749.54 624.736 739.947 694.987C730.27 765.844 702.932 810.594 657.876 829.162L647.772 832.713L518.454 878.603M207.4 536.251C212.65 575.042 223.371 615.061 239.637 656.247C271.029 735.794 314.21 797.502 369.124 841.295C423.684 884.767 473.463 897.18 518.454 878.603M464.602 741.548C462.492 742.424 460.317 742.812 458.019 742.635C454.14 742.379 450.082 740.524 445.779 737.06C439.017 731.685 433.591 723.822 429.545 713.614L383.41 596.787C381.738 592.518 380.456 587.824 379.563 582.703C378.661 577.649 378.503 572.971 379.082 568.736L392.183 472.803C393.413 463.795 396.835 458.168 402.327 455.836C407.885 453.514 414.166 455.125 421.105 460.661C428.109 466.205 433.489 473.925 437.385 483.77C441.281 493.616 442.581 503.037 441.359 511.978L430.095 594.465L470.771 696.372C474.817 706.58 476.238 716.087 475.045 724.827C473.851 733.566 470.373 739.117 464.602 741.548Z" stroke="#F14CFF" stroke-width="16.318" stroke-linecap="round" stroke-linejoin="round" shape-rendering="crispEdges"/>
</g>
<defs>
<filter id="filter0_d_130_123" x="0.859375" y="0.104248" width="900.604" height="965.021" filterUnits="userSpaceOnUse" color-interpolation-filters="sRGB">
<feFlood flood-opacity="0" result="BackgroundImageFix"/>
<feColorMatrix in="SourceAlpha" type="matrix" values="0 0 0 0 0 0 0 0 0 0 0 0 0 0 0 0 0 0 127 0" result="hardAlpha"/>
<feOffset dx="50" dy="-30"/>
<feGaussianBlur stdDeviation="50"/>
<feComposite in2="hardAlpha" operator="out"/>
<feColorMatrix type="matrix" values="0 0 0 0 0.607843 0 0 0 0 0.188235 0 0 0 0 1 0 0 0 1 0"/>
<feBlend mode="normal" in2="BackgroundImageFix" result="effect1_dropShadow_130_123"/>
<feBlend mode="normal" in="SourceGraphic" in2="effect1_dropShadow_130_123" result="shape"/>
</filter>
</defs>
</svg>
